<?xml version="1.0" encoding="utf-8"?>
<!-- Generator: Adobe Illustrator 16.0.0, SVG Export Plug-In . SVG Version: 6.00 Build 0)  -->
<!DOCTYPE svg PUBLIC "-//W3C//DTD SVG 1.1//EN" "http://www.w3.org/Graphics/SVG/1.1/DTD/svg11.dtd">
<svg version="1.1" id="Layer_1" xmlns="http://www.w3.org/2000/svg" xmlns:xlink="http://www.w3.org/1999/xlink" x="0px" y="0px"
	 width="847px" height="847px" viewBox="0 0 847 847" enable-background="new 0 0 847 847" xml:space="preserve">
<g display="none">
	<path display="inline" fill="#BF6969" stroke="#FFFFFF" d="M423.5,722.96c-165.387,0.03-299.484-134.018-299.515-299.405
		c-0.03-165.387,134.018-299.484,299.405-299.515c0.036,0,0.072,0,0.109,0c165.387-0.03,299.484,134.018,299.515,299.405
		c0.03,165.387-134.018,299.484-299.405,299.515C423.573,722.96,423.537,722.96,423.5,722.96z"/>
	<title>undefined: none</title>
</g>
<path fill="#2635EF" stroke="#FFFFFF" d="M423.5,0C657.393,0,847,189.607,847,423.5c0,89.435-28.313,176.573-80.881,248.927
	l-100.352-72.909c97.213-133.801,67.552-321.074-66.25-418.286C548.356,144.061,486.739,124.04,423.5,124.04V0z"/>
<text transform="matrix(0.891 -0.454 0.454 0.891 635.25 292.6313)" font-family="'ArialMT'" font-size="11">Azul</text>
<text transform="matrix(0.891 -0.454 0.454 0.891 644.4834 309.6313)" font-family="'ArialMT'" font-size="11">35%</text>
<title>Azul: 35</title>
<path fill="#F4F425" stroke="#FFFFFF" d="M766.119,672.427c-15.652,21.544-33.302,41.562-52.714,59.791l-84.911-90.421
	c13.727-12.89,26.206-27.046,37.273-42.279L766.119,672.427z"/>
<text transform="matrix(0.7501 0.6613 -0.6613 0.7501 613.6631 575.9717)" font-family="'ArialMT'" font-size="11">amarillo</text>
<text transform="matrix(0.7501 0.6613 -0.6613 0.7501 609.5176 594.3242)" font-family="'ArialMT'" font-size="11">3%</text>
<title>amarillo: 3</title>
<path fill="#FFFFFF" stroke="#000000" stroke-width="2" d="M713.405,732.218c-6.466,6.072-13.121,11.94-19.956,17.595
	l-79.066-95.575c4.833-3.998,9.539-8.146,14.111-12.44L713.405,732.218z"/>
<text transform="matrix(0.6613 0.7501 -0.7501 0.6613 574.6172 598.3242)" font-family="'ArialMT'" font-size="11">blanco</text>
<text transform="matrix(0.6613 0.7501 -0.7501 0.6613 579.6172 644.1748)" font-family="'ArialMT'" font-size="11">1%</text>
<text transform="matrix(0.6613 0.7501 -0.7501 0.6613 601.6172 631.1748)" font-family="'ArialMT'" font-size="11">1%</text>
<title>blanco: 1</title>
<path fill="#5B3F2A" stroke="#FFFFFF" d="M693.449,749.812c-6.835,5.654-13.846,11.092-21.022,16.307l-72.909-100.352
	c5.075-3.687,10.032-7.531,14.865-11.53L693.449,749.812z"/>
<text transform="matrix(0.6129 0.7902 -0.7902 0.6129 561.6758 621.7969)" font-family="'ArialMT'" font-size="11">cafe</text>
<title>cafe: 1</title>
<path fill="#8228E0" stroke="#FFFFFF" d="M672.427,766.119c-172.619,125.415-411.583,102.826-557.645-52.714l90.421-84.911
	c103.281,109.983,272.254,125.956,394.314,37.273L672.427,766.119z"/>
<text transform="matrix(0.9916 0.1297 -0.1297 0.9916 373.2158 668.0146)" font-family="'ArialMT'" font-size="11">morado</text>
<text transform="matrix(0.9916 0.1297 -0.1297 0.9916 376.2158 687.0146)" font-family="'ArialMT'" font-size="11">23%</text>
<title>morado: 23</title>
<path fill="#DD7212" stroke="#FFFFFF" d="M114.782,713.405c-18.229-19.411-34.586-40.499-48.854-62.982l104.73-66.464
	c10.089,15.897,21.656,30.81,34.545,44.535L114.782,713.405z"/>
<text transform="matrix(0.7902 -0.6129 0.6129 0.7902 205.2031 595.3242)" font-family="'ArialMT'" font-size="11">naranjo</text>
<text transform="matrix(0.7902 -0.6129 0.6129 0.7902 225.2031 599.3242)" font-family="'ArialMT'" font-size="11">5%</text>
<title>naranjo: 3</title>
<path fill="#020000" stroke="#FFFFFF" d="M65.927,650.423C42.115,612.9,24.357,571.864,13.305,528.82l120.143-30.848
	c7.815,30.437,20.372,59.454,37.209,85.986L65.927,650.423z"/>
<text transform="matrix(0.9178 -0.3971 0.3971 0.9178 163.1455 528.8203)" font-family="'ArialMT'" font-size="11">negro</text>
<text transform="matrix(0.9178 -0.3971 0.3971 0.9178 178.6577 542.8203)" font-family="'ArialMT'" font-size="11">6%</text>
<title>negro: 5</title>
<path fill="#F70606" stroke="#FFFFFF" d="M13.305,528.82c-19.986-77.839-17.412-159.759,7.422-236.189l117.969,38.331
	c-17.56,54.045-19.38,111.97-5.249,167.011L13.305,528.82z"/>
<text transform="matrix(0.9995 0.0314 -0.0314 0.9995 146.1616 415.3428)" font-family="'ArialMT'" font-size="11">rojo</text>
<text transform="matrix(0.9995 0.0314 -0.0314 0.9995 146.1616 433.3428)" font-family="'ArialMT'" font-size="11">9%</text>
<title>rojo: 9</title>
<path fill="#EF35E7" stroke="#FFFFFF" d="M20.728,292.631c16.494-50.764,42.437-97.953,76.46-139.081l95.575,79.066
	c-24.058,29.082-42.402,62.449-54.065,98.345L20.728,292.631z"/>
<text transform="matrix(0.8763 0.4818 -0.4818 0.8763 178.6577 276.5693)" font-family="'ArialMT'" font-size="11">rosado</text>
<text transform="matrix(0.8763 0.4818 -0.4818 0.8763 177.6577 293.6313)" font-family="'ArialMT'" font-size="11">5%</text>
<title>rosado: 6</title>
<path fill="#75F42A" stroke="#FFFFFF" d="M97.188,153.551C177.642,56.298,297.282,0,423.5,0v124.04
	c-89.25,0-173.848,39.809-230.738,108.577L97.188,153.551z"/>
<text transform="matrix(0.786 0.6183 -0.6183 0.786 316.7871 163.0713)" font-family="'ArialMT'" font-size="11">verde</text>
<text transform="matrix(0.786 0.6183 -0.6183 0.786 304.7871 179.0713)" font-family="'ArialMT'" font-size="11">14%</text>
<title>verde: 14</title>
</svg>
