<?xml version="1.0" encoding="utf-8"?>
<!-- Generator: Adobe Illustrator 16.0.0, SVG Export Plug-In . SVG Version: 6.00 Build 0)  -->
<!DOCTYPE svg PUBLIC "-//W3C//DTD SVG 1.1//EN" "http://www.w3.org/Graphics/SVG/1.1/DTD/svg11.dtd">
<svg version="1.1" id="Layer_1" xmlns="http://www.w3.org/2000/svg" xmlns:xlink="http://www.w3.org/1999/xlink" x="0px" y="0px"
	 width="800px" height="600px" viewBox="0 0 800 600" enable-background="new 0 0 800 600" xml:space="preserve">
<text transform="matrix(1 0 0 1 8.3154 16.7686)" font-family="'ArialMT'" font-size="10">N de votos</text>
<g transform="translate(0,0)">
	<g transform="translate(0,550)">
		<line fill="none" stroke="#CCCCCC" x1="40" y1="21.769" x2="34" y2="21.769"/>
		<text transform="matrix(1 0 0 1 25.4385 24.9688)" font-family="'ArialMT'" font-size="10">0</text>
	</g>
	<g transform="translate(0,535.4304635761589)">
		<line fill="none" stroke="#CCCCCC" x1="40" y1="21.769" x2="34" y2="21.769"/>
		<text transform="matrix(1 0 0 1 19.877 24.9689)" font-family="'ArialMT'" font-size="10">20</text>
	</g>
	<g transform="translate(0,520.8609271523178)">
		<line fill="none" stroke="#CCCCCC" x1="40" y1="21.769" x2="34" y2="21.769"/>
		<text transform="matrix(1 0 0 1 19.877 24.9682)" font-family="'ArialMT'" font-size="10">40</text>
	</g>
	<g transform="translate(0,506.29139072847687)">
		<line fill="none" stroke="#CCCCCC" x1="40" y1="21.768" x2="34" y2="21.768"/>
		<text transform="matrix(1 0 0 1 19.877 24.9684)" font-family="'ArialMT'" font-size="10">60</text>
	</g>
	<g transform="translate(0,491.72185430463577)">
		<line fill="none" stroke="#CCCCCC" x1="40" y1="21.768" x2="34" y2="21.768"/>
		<text transform="matrix(1 0 0 1 19.877 24.9686)" font-family="'ArialMT'" font-size="10">80</text>
	</g>
	<g transform="translate(0,477.15231788079467)">
		<line fill="none" stroke="#CCCCCC" x1="40" y1="21.769" x2="34" y2="21.769"/>
		<text transform="matrix(1 0 0 1 14.3154 24.9688)" font-family="'ArialMT'" font-size="10">100</text>
	</g>
	<g transform="translate(0,462.5827814569536)">
		<line fill="none" stroke="#CCCCCC" x1="40" y1="21.769" x2="34" y2="21.769"/>
		<text transform="matrix(1 0 0 1 14.3154 24.969)" font-family="'ArialMT'" font-size="10">120</text>
	</g>
	<g transform="translate(0,448.0132450331125)">
		<line fill="none" stroke="#CCCCCC" x1="40" y1="21.769" x2="34" y2="21.769"/>
		<text transform="matrix(1 0 0 1 14.3154 24.9682)" font-family="'ArialMT'" font-size="10">140</text>
	</g>
	<g transform="translate(0,433.44370860927154)">
		<line fill="none" stroke="#CCCCCC" x1="40" y1="21.768" x2="34" y2="21.768"/>
		<text transform="matrix(1 0 0 1 14.3154 24.9684)" font-family="'ArialMT'" font-size="10">160</text>
	</g>
	<g transform="translate(0,418.87417218543044)">
		<line fill="none" stroke="#CCCCCC" x1="40" y1="21.768" x2="34" y2="21.768"/>
		<text transform="matrix(1 0 0 1 14.3154 24.9686)" font-family="'ArialMT'" font-size="10">180</text>
	</g>
	<g transform="translate(0,404.3046357615894)">
		<line fill="none" stroke="#CCCCCC" x1="40" y1="21.769" x2="34" y2="21.769"/>
		<text transform="matrix(1 0 0 1 14.3154 24.9688)" font-family="'ArialMT'" font-size="10">200</text>
	</g>
	<g transform="translate(0,389.7350993377484)">
		<line fill="none" stroke="#CCCCCC" x1="40" y1="21.769" x2="34" y2="21.769"/>
		<text transform="matrix(1 0 0 1 14.3154 24.969)" font-family="'ArialMT'" font-size="10">220</text>
	</g>
	<g transform="translate(0,375.16556291390725)">
		<line fill="none" stroke="#CCCCCC" x1="40" y1="21.769" x2="34" y2="21.769"/>
		<text transform="matrix(1 0 0 1 14.3154 24.9682)" font-family="'ArialMT'" font-size="10">240</text>
	</g>
	<g transform="translate(0,360.5960264900662)">
		<line fill="none" stroke="#CCCCCC" x1="40" y1="21.768" x2="34" y2="21.768"/>
		<text transform="matrix(1 0 0 1 14.3154 24.9684)" font-family="'ArialMT'" font-size="10">260</text>
	</g>
	<g transform="translate(0,346.02649006622516)">
		<line fill="none" stroke="#CCCCCC" x1="40" y1="21.768" x2="34" y2="21.768"/>
		<text transform="matrix(1 0 0 1 14.3154 24.9686)" font-family="'ArialMT'" font-size="10">280</text>
	</g>
	<g transform="translate(0,331.45695364238406)">
		<line fill="none" stroke="#CCCCCC" x1="40" y1="21.769" x2="34" y2="21.769"/>
		<text transform="matrix(1 0 0 1 14.3154 24.9688)" font-family="'ArialMT'" font-size="10">300</text>
	</g>
	<g transform="translate(0,316.8874172185431)">
		<line fill="none" stroke="#CCCCCC" x1="40" y1="21.769" x2="34" y2="21.769"/>
		<text transform="matrix(1 0 0 1 14.3154 24.969)" font-family="'ArialMT'" font-size="10">320</text>
	</g>
	<g transform="translate(0,302.3178807947019)">
		<line fill="none" stroke="#CCCCCC" x1="40" y1="21.769" x2="34" y2="21.769"/>
		<text transform="matrix(1 0 0 1 14.3154 24.9683)" font-family="'ArialMT'" font-size="10">340</text>
	</g>
	<g transform="translate(0,287.74834437086093)">
		<line fill="none" stroke="#CCCCCC" x1="40" y1="21.769" x2="34" y2="21.769"/>
		<text transform="matrix(1 0 0 1 14.3154 24.9684)" font-family="'ArialMT'" font-size="10">360</text>
	</g>
	<g transform="translate(0,273.17880794701983)">
		<line fill="none" stroke="#CCCCCC" x1="40" y1="21.768" x2="34" y2="21.768"/>
		<text transform="matrix(1 0 0 1 14.3154 24.9687)" font-family="'ArialMT'" font-size="10">380</text>
	</g>
	<g transform="translate(0,258.6092715231788)">
		<line fill="none" stroke="#CCCCCC" x1="40" y1="21.769" x2="34" y2="21.769"/>
		<text transform="matrix(1 0 0 1 14.3154 24.9688)" font-family="'ArialMT'" font-size="10">400</text>
	</g>
	<g transform="translate(0,244.03973509933778)">
		<line fill="none" stroke="#CCCCCC" x1="40" y1="21.768" x2="34" y2="21.768"/>
		<text transform="matrix(1 0 0 1 14.3154 24.9691)" font-family="'ArialMT'" font-size="10">420</text>
	</g>
	<g transform="translate(0,229.4701986754967)">
		<line fill="none" stroke="#CCCCCC" x1="40" y1="21.769" x2="34" y2="21.769"/>
		<text transform="matrix(1 0 0 1 14.3154 24.9683)" font-family="'ArialMT'" font-size="10">440</text>
	</g>
	<g transform="translate(0,214.90066225165563)">
		<line fill="none" stroke="#CCCCCC" x1="40" y1="21.769" x2="34" y2="21.769"/>
		<text transform="matrix(1 0 0 1 14.3154 24.9685)" font-family="'ArialMT'" font-size="10">460</text>
	</g>
	<g transform="translate(0,200.33112582781456)">
		<line fill="none" stroke="#CCCCCC" x1="40" y1="21.768" x2="34" y2="21.768"/>
		<text transform="matrix(1 0 0 1 14.3154 24.9687)" font-family="'ArialMT'" font-size="10">480</text>
	</g>
	<g transform="translate(0,185.7615894039735)">
		<line fill="none" stroke="#CCCCCC" x1="40" y1="21.769" x2="34" y2="21.769"/>
		<text transform="matrix(1 0 0 1 14.3154 24.9689)" font-family="'ArialMT'" font-size="10">500</text>
	</g>
	<g transform="translate(0,171.19205298013247)">
		<line fill="none" stroke="#CCCCCC" x1="40" y1="21.768" x2="34" y2="21.768"/>
		<text transform="matrix(1 0 0 1 14.3154 24.9681)" font-family="'ArialMT'" font-size="10">520</text>
	</g>
	<g transform="translate(0,156.6225165562914)">
		<line fill="none" stroke="#CCCCCC" x1="40" y1="21.769" x2="34" y2="21.769"/>
		<text transform="matrix(1 0 0 1 14.3154 24.9683)" font-family="'ArialMT'" font-size="10">540</text>
	</g>
	<g transform="translate(0,142.05298013245033)">
		<line fill="none" stroke="#CCCCCC" x1="40" y1="21.768" x2="34" y2="21.768"/>
		<text transform="matrix(1 0 0 1 14.3154 24.9685)" font-family="'ArialMT'" font-size="10">560</text>
	</g>
	<g transform="translate(0,127.48344370860926)">
		<line fill="none" stroke="#CCCCCC" x1="40" y1="21.768" x2="34" y2="21.768"/>
		<text transform="matrix(1 0 0 1 14.3154 24.9687)" font-family="'ArialMT'" font-size="10">580</text>
	</g>
	<g transform="translate(0,112.91390728476824)">
		<line fill="none" stroke="#CCCCCC" x1="40" y1="21.769" x2="34" y2="21.769"/>
		<text transform="matrix(1 0 0 1 14.3154 24.9689)" font-family="'ArialMT'" font-size="10">600</text>
	</g>
	<g transform="translate(0,98.34437086092717)">
		<line fill="none" stroke="#CCCCCC" x1="40" y1="21.768" x2="34" y2="21.768"/>
		<text transform="matrix(1 0 0 1 14.3154 24.9681)" font-family="'ArialMT'" font-size="10">620</text>
	</g>
	<g transform="translate(0,83.7748344370861)">
		<line fill="none" stroke="#CCCCCC" x1="40" y1="21.769" x2="34" y2="21.769"/>
		<text transform="matrix(1 0 0 1 14.3154 24.9683)" font-family="'ArialMT'" font-size="10">640</text>
	</g>
	<g transform="translate(0,69.20529801324503)">
		<line fill="none" stroke="#CCCCCC" x1="40" y1="21.768" x2="34" y2="21.768"/>
		<text transform="matrix(1 0 0 1 14.3154 24.9685)" font-family="'ArialMT'" font-size="10">660</text>
	</g>
	<g transform="translate(0,54.63576158940395)">
		<line fill="none" stroke="#CCCCCC" x1="40" y1="21.769" x2="34" y2="21.769"/>
		<text transform="matrix(1 0 0 1 14.3154 24.9688)" font-family="'ArialMT'" font-size="10">680</text>
	</g>
	<g transform="translate(0,40.06622516556293)">
		<line fill="none" stroke="#CCCCCC" x1="40" y1="21.769" x2="34" y2="21.769"/>
		<text transform="matrix(1 0 0 1 14.3154 24.9689)" font-family="'ArialMT'" font-size="10">700</text>
	</g>
	<g transform="translate(0,25.49668874172186)">
		<line fill="none" stroke="#CCCCCC" x1="40" y1="21.768" x2="34" y2="21.768"/>
		<text transform="matrix(1 0 0 1 14.3154 24.9681)" font-family="'ArialMT'" font-size="10">720</text>
	</g>
	<g transform="translate(0,10.92715231788079)">
		<line fill="none" stroke="#CCCCCC" x1="40" y1="21.769" x2="34" y2="21.769"/>
		<text transform="matrix(1 0 0 1 14.3154 24.9684)" font-family="'ArialMT'" font-size="10">740</text>
	</g>
	<path fill="none" stroke="#CCCCCC" d="M34,21.769h6v550h-6"/>
</g>
<rect x="594" y="176.934" fill="#46FF1F" width="55" height="394.834"/>
<rect x="317" y="115.014" fill="#FFFF1D" width="55" height="456.755"/>
<rect x="249" y="113.557" fill="#364AFF" width="55" height="458.212"/>
<rect x="180" y="86.603" fill="#FFFFFF" stroke="#000000" stroke-width="2" width="55" height="485.166"/>
<rect x="524" y="171.835" fill="#92FCFC" width="55" height="399.934"/>
<rect x="455" y="164.55" fill="#E600FF" width="55" height="407.219"/>
<rect x="112" y="79.318" fill="#5B5B5B" width="55" height="492.45"/>
<rect x="664" y="179.12" fill="#FF8C1A" width="55" height="392.649"/>
<rect x="46" y="21.769" width="55" height="550"/>
<rect x="386" y="134.683" fill="#FF2222" width="55" height="437.086"/>
<rect x="732" y="183.49" fill="#F9ABFF" width="55" height="388.278"/>
<g transform="translate(29.5,0)">
	<line fill="none" stroke="#CCCCCC" x1="592" y1="571.769" x2="592" y2="577.769"/>
	<text transform="matrix(1 0 0 1 578.9336 587.8682)" font-family="'ArialMT'" font-size="10">Verde</text>
</g>
<g transform="translate(98.5,0)">
	<line fill="none" stroke="#CCCCCC" x1="246" y1="571.769" x2="246" y2="577.769"/>
	<text transform="matrix(1 0 0 1 228.4951 587.8682)" font-family="'ArialMT'" font-size="10">amarillo</text>
</g>
<g transform="translate(167.5,0)">
	<line fill="none" stroke="#CCCCCC" x1="109" y1="571.769" x2="109" y2="577.769"/>
	<text transform="matrix(1 0 0 1 99.8276 587.8682)" font-family="'ArialMT'" font-size="10">azul</text>
</g>
<g transform="translate(236.5,0)">
	<line fill="none" stroke="#CCCCCC" x1="-29" y1="571.769" x2="-29" y2="577.769"/>
	<text transform="matrix(1 0 0 1 -43.7339 587.8682)" font-family="'ArialMT'" font-size="10">blanco</text>
</g>
<g transform="translate(305.5,0)">
	<line fill="none" stroke="#CCCCCC" x1="246" y1="571.769" x2="246" y2="577.769"/>
	<text transform="matrix(1 0 0 1 230.1582 587.8682)" font-family="'ArialMT'" font-size="10">celeste</text>
</g>
<g transform="translate(374.5,0)">
	<line fill="none" stroke="#CCCCCC" x1="108" y1="571.769" x2="108" y2="577.769"/>
	<text transform="matrix(1 0 0 1 94.9385 587.8682)" font-family="'ArialMT'" font-size="10">fuccia</text>
</g>
<g transform="translate(443.5,0)">
	<line fill="none" stroke="#CCCCCC" x1="-304" y1="571.769" x2="-304" y2="577.769"/>
	<text transform="matrix(1 0 0 1 -312.0566 587.8682)" font-family="'ArialMT'" font-size="10">gris</text>
</g>
<g transform="translate(512.5,0)">
	<line fill="none" stroke="#CCCCCC" x1="179" y1="571.769" x2="179" y2="577.769"/>
	<text transform="matrix(1 0 0 1 162.3203 587.8682)" font-family="'ArialMT'" font-size="10">naranjo</text>
</g>
<g transform="translate(581.5,0)">
	<line fill="none" stroke="#CCCCCC" x1="-508" y1="571.769" x2="-508" y2="577.769"/>
	<text transform="matrix(1 0 0 1 -520.7881 587.8682)" font-family="'ArialMT'" font-size="10">negro</text>
</g>
<g transform="translate(650.5,0)">
	<line fill="none" stroke="#CCCCCC" x1="-237" y1="571.769" x2="-237" y2="577.769"/>
	<text transform="matrix(1 0 0 1 -245.3379 587.8682)" font-family="'ArialMT'" font-size="10">rojo</text>
</g>
<g transform="translate(719.5,0)">
	<line fill="none" stroke="#CCCCCC" x1="40" y1="571.769" x2="40" y2="577.769"/>
	<text transform="matrix(1 0 0 1 24.7119 587.8682)" font-family="'ArialMT'" font-size="10">rosado</text>
</g>
</svg>
